<?xml version="1.0" standalone="no"?><!DOCTYPE svg PUBLIC "-//W3C//DTD SVG 1.1//EN" "http://www.w3.org/Graphics/SVG/1.1/DTD/svg11.dtd"><svg t="1689593558564" class="icon" viewBox="0 0 1024 1024" version="1.1" xmlns="http://www.w3.org/2000/svg" p-id="2409" xmlns:xlink="http://www.w3.org/1999/xlink" width="200" height="200"><path d="M887.466667 101.376L733.866667 119.466667l51.2 55.466666-168.618667 223.402667L442.026667 223.232a29.696 29.696 0 0 0-42.325334 0L143.36 474.282667a36.693333 36.693333 0 0 0-2.218667 48.469333 30.208 30.208 0 0 0 44.544 2.389333l234.837334-230.570666 177.664 178.517333a31.402667 31.402667 0 0 0 23.552 9.045333 32.938667 32.938667 0 0 0 22.186666-12.288l185.002667-245.76L870.4 269.994667zM231.424 921.6H155.818667a23.722667 23.722667 0 0 1-22.528-24.576V618.325333a23.722667 23.722667 0 0 1 22.528-24.576h75.605333a23.722667 23.722667 0 0 1 22.528 24.576v279.04A23.722667 23.722667 0 0 1 231.424 921.6z" fill="#2499F6" p-id="2410"></path><path d="M442.709333 921.6h-75.434666a23.722667 23.722667 0 0 1-22.698667-24.576v-443.733333a23.722667 23.722667 0 0 1 22.698667-24.576h75.434666a23.722667 23.722667 0 0 1 22.698667 24.576v443.733333A23.722667 23.722667 0 0 1 442.709333 921.6z m211.456 0H578.56a23.722667 23.722667 0 0 1-22.528-24.576V577.194667a23.722667 23.722667 0 0 1 22.528-24.576h75.605333a23.722667 23.722667 0 0 1 22.528 24.576v320.170666A23.722667 23.722667 0 0 1 654.165333 921.6z m211.285334 0h-75.434667A23.722667 23.722667 0 0 1 768 897.365333V372.224a23.893333 23.893333 0 0 1 22.698667-24.746667h75.434666A23.893333 23.893333 0 0 1 887.466667 372.224v525.141333A23.722667 23.722667 0 0 1 865.450667 921.6z" fill="#2499F6" p-id="2411"></path></svg>